<svg xmlns="http://www.w3.org/2000/svg" xmlns:xlink="http://www.w3.org/1999/xlink" width="54.621" height="57.707" viewBox="0 0 54.621 57.707">
  <defs>
    <filter id="Path_38660" x="0" y="-0.002" width="54.621" height="57.707" filterUnits="userSpaceOnUse">
      <feOffset dy="3" input="SourceAlpha"/>
      <feGaussianBlur stdDeviation="3" result="blur"/>
      <feFlood flood-opacity="0.161"/>
      <feComposite operator="in" in2="blur"/>
    </filter>
    <filter id="Path_38660-2" x="0" y="-0.002" width="54.621" height="57.707" filterUnits="userSpaceOnUse">
      <feOffset dy="3" input="SourceAlpha"/>
      <feGaussianBlur stdDeviation="3" result="blur-2"/>
      <feFlood flood-opacity="0.161" result="color"/>
      <feComposite operator="out" in="SourceGraphic" in2="blur-2"/>
      <feComposite operator="in" in="color"/>
      <feComposite operator="in" in2="SourceGraphic"/>
    </filter>
  </defs>
  <g id="Group_24921" data-name="Group 24921" transform="translate(-224.93 -191.629)">
    <g id="_2374576524eda600422b919f47b9ad5d" data-name="2374576524eda600422b919f47b9ad5d" transform="translate(234.294 197.88)">
      <path id="Path_38659" data-name="Path 38659" d="M691.54,920.157a2.42,2.42,0,0,0,2.068.241,4.007,4.007,0,0,0,2.038-1.8,3.86,3.86,0,0,0,.676-2.437,2.332,2.332,0,0,0-1.151-1.735,2.44,2.44,0,0,0-2.1-.228,3.935,3.935,0,0,0-2,1.751,3.837,3.837,0,0,0-.641,2.531A2.364,2.364,0,0,0,691.54,920.157Zm.728-3.527c.734-1.189,1.63-1.7,2.285-1.293a1.038,1.038,0,0,1,.483,1.052,3.706,3.706,0,0,1-.6,1.542c-.366.593-1.321,1.907-2.293,1.308a.958.958,0,0,1-.44-.63A2.79,2.79,0,0,1,692.267,916.63Zm6.512,5.214a2.436,2.436,0,0,0-2.1-.227,3.968,3.968,0,0,0-2.011,1.763,3.8,3.8,0,0,0-.633,2.519,2.368,2.368,0,0,0,1.115,1.676,2.4,2.4,0,0,0,2.056.233,4.019,4.019,0,0,0,2.037-1.8,3.889,3.889,0,0,0,.682-2.433A2.311,2.311,0,0,0,698.779,921.844Zm-.136,1.962a3.7,3.7,0,0,1-.6,1.542c-.366.593-1.321,1.907-2.293,1.307a.951.951,0,0,1-.433-.622,2.821,2.821,0,0,1,.542-1.995c.6-.975,1.545-1.75,2.3-1.285A1.038,1.038,0,0,1,698.643,923.807Zm2.5-5.7-.783-.483a.115.115,0,0,0-.115,0l-11.137,6.1a.115.115,0,0,0-.005.2l.783.483a.115.115,0,0,0,.115,0l11.137-6.1a.115.115,0,0,0,.06-.1A.114.114,0,0,0,701.141,918.109Z" transform="translate(-680.502 -897.072)" fill="#ff0068"/>
      <g data-type="innerShadowGroup">
        <g transform="matrix(1, 0, 0, 1, -9.36, -6.25)" filter="url(#Path_38660)">
          <path id="Path_38660-3" data-name="Path 38660" d="M443.014,370.628l-8.155-8.576-.053.05a1.867,1.867,0,0,0-1.318-.878,11.863,11.863,0,0,0-.206-3.505c-.377-1.549-1.076-1.994-1.6-2.095a1.736,1.736,0,0,0-1.435.443,5.287,5.287,0,0,0-1.175,1.436,15.519,15.519,0,0,0-1.714,4.841q-.023.12-.045.24l-6.059,1.48a4.671,4.671,0,0,0-2.5,1.8L408.46,382.144a1.937,1.937,0,0,0,.6,2.669l14.859,9.4a1.924,1.924,0,0,0,1.03.3,1.945,1.945,0,0,0,.9-.219l16.142.516h.028a2.013,2.013,0,0,0,2.01-2l.138-19.26a4.757,4.757,0,0,0-1.155-2.92ZM429.86,357.971c.583-.979,1.217-1.535,1.652-1.45.355.069.685.6.884,1.415a11.141,11.141,0,0,1,.172,3.368l-4.277,1.044A14.42,14.42,0,0,1,429.86,357.971Zm-4.909,35.623a1.014,1.014,0,0,1-.542-.157l-14.859-9.4a1.023,1.023,0,0,1-.318-1.41l10.294-16.279a3.816,3.816,0,0,1,1.948-1.4l5.691-1.39a14.812,14.812,0,0,0-.065,3.585,3.05,3.05,0,0,0-.288.385,3.013,3.013,0,1,0,1.141-1.058,15.007,15.007,0,0,1,.166-3.145l4.853-1.185a1,1,0,0,1,.236-.029.955.955,0,0,1,.907.645l-.027.026.051.053c0,.017.008.033.012.05l2.392,11.59a3.815,3.815,0,0,1-.43,2.361L425.818,393.12A1.02,1.02,0,0,1,424.95,393.595Zm6.2-23.318a2.111,2.111,0,0,1-3.782-1.81,4.036,4.036,0,0,0,.329.781,1.736,1.736,0,0,0,1.166.946,1.4,1.4,0,0,0,.268.026c.752,0,1.526-.6,2.237-1.734A2.108,2.108,0,0,1,431.151,370.277Zm-2.113-.979c-.4-.078-.774-.727-.968-1.816a2.112,2.112,0,0,1,2.752.137C430.2,368.738,429.516,369.39,429.038,369.3Zm13.928,23.5a.947.947,0,0,1-.946.939h0l-15.206-.486,9.287-14.686a.971.971,0,0,0,.286-.411l.035-.1.463-.732a4.672,4.672,0,0,0,.552-3.033l-2.106-10.2,6.912,7.269a3.726,3.726,0,0,1,.861,2.179Z" transform="translate(-398.8 -349.35)" fill="#ff0068" stroke="#ff0068" stroke-width="0.5"/>
        </g>
        <path id="Path_38660-4" data-name="Path 38660" d="M443.014,370.628l-8.155-8.576-.053.05a1.867,1.867,0,0,0-1.318-.878,11.863,11.863,0,0,0-.206-3.505c-.377-1.549-1.076-1.994-1.6-2.095a1.736,1.736,0,0,0-1.435.443,5.287,5.287,0,0,0-1.175,1.436,15.519,15.519,0,0,0-1.714,4.841q-.023.12-.045.24l-6.059,1.48a4.671,4.671,0,0,0-2.5,1.8L408.46,382.144a1.937,1.937,0,0,0,.6,2.669l14.859,9.4a1.924,1.924,0,0,0,1.03.3,1.945,1.945,0,0,0,.9-.219l16.142.516h.028a2.013,2.013,0,0,0,2.01-2l.138-19.26a4.757,4.757,0,0,0-1.155-2.92ZM429.86,357.971c.583-.979,1.217-1.535,1.652-1.45.355.069.685.6.884,1.415a11.141,11.141,0,0,1,.172,3.368l-4.277,1.044A14.42,14.42,0,0,1,429.86,357.971Zm-4.909,35.623a1.014,1.014,0,0,1-.542-.157l-14.859-9.4a1.023,1.023,0,0,1-.318-1.41l10.294-16.279a3.816,3.816,0,0,1,1.948-1.4l5.691-1.39a14.812,14.812,0,0,0-.065,3.585,3.05,3.05,0,0,0-.288.385,3.013,3.013,0,1,0,1.141-1.058,15.007,15.007,0,0,1,.166-3.145l4.853-1.185a1,1,0,0,1,.236-.029.955.955,0,0,1,.907.645l-.027.026.051.053c0,.017.008.033.012.05l2.392,11.59a3.815,3.815,0,0,1-.43,2.361L425.818,393.12A1.02,1.02,0,0,1,424.95,393.595Zm6.2-23.318a2.111,2.111,0,0,1-3.782-1.81,4.036,4.036,0,0,0,.329.781,1.736,1.736,0,0,0,1.166.946,1.4,1.4,0,0,0,.268.026c.752,0,1.526-.6,2.237-1.734A2.108,2.108,0,0,1,431.151,370.277Zm-2.113-.979c-.4-.078-.774-.727-.968-1.816a2.112,2.112,0,0,1,2.752.137C430.2,368.738,429.516,369.39,429.038,369.3Zm13.928,23.5a.947.947,0,0,1-.946.939h0l-15.206-.486,9.287-14.686a.971.971,0,0,0,.286-.411l.035-.1.463-.732a4.672,4.672,0,0,0,.552-3.033l-2.106-10.2,6.912,7.269a3.726,3.726,0,0,1,.861,2.179Z" transform="translate(-408.161 -355.6)" fill="#ff0068"/>
        <g transform="matrix(1, 0, 0, 1, -9.36, -6.25)" filter="url(#Path_38660-2)">
          <path id="Path_38660-5" data-name="Path 38660" d="M443.014,370.628l-8.155-8.576-.053.05a1.867,1.867,0,0,0-1.318-.878,11.863,11.863,0,0,0-.206-3.505c-.377-1.549-1.076-1.994-1.6-2.095a1.736,1.736,0,0,0-1.435.443,5.287,5.287,0,0,0-1.175,1.436,15.519,15.519,0,0,0-1.714,4.841q-.023.12-.045.24l-6.059,1.48a4.671,4.671,0,0,0-2.5,1.8L408.46,382.144a1.937,1.937,0,0,0,.6,2.669l14.859,9.4a1.924,1.924,0,0,0,1.03.3,1.945,1.945,0,0,0,.9-.219l16.142.516h.028a2.013,2.013,0,0,0,2.01-2l.138-19.26a4.757,4.757,0,0,0-1.155-2.92ZM429.86,357.971c.583-.979,1.217-1.535,1.652-1.45.355.069.685.6.884,1.415a11.141,11.141,0,0,1,.172,3.368l-4.277,1.044A14.42,14.42,0,0,1,429.86,357.971Zm-4.909,35.623a1.014,1.014,0,0,1-.542-.157l-14.859-9.4a1.023,1.023,0,0,1-.318-1.41l10.294-16.279a3.816,3.816,0,0,1,1.948-1.4l5.691-1.39a14.812,14.812,0,0,0-.065,3.585,3.05,3.05,0,0,0-.288.385,3.013,3.013,0,1,0,1.141-1.058,15.007,15.007,0,0,1,.166-3.145l4.853-1.185a1,1,0,0,1,.236-.029.955.955,0,0,1,.907.645l-.027.026.051.053c0,.017.008.033.012.05l2.392,11.59a3.815,3.815,0,0,1-.43,2.361L425.818,393.12A1.02,1.02,0,0,1,424.95,393.595Zm6.2-23.318a2.111,2.111,0,0,1-3.782-1.81,4.036,4.036,0,0,0,.329.781,1.736,1.736,0,0,0,1.166.946,1.4,1.4,0,0,0,.268.026c.752,0,1.526-.6,2.237-1.734A2.108,2.108,0,0,1,431.151,370.277Zm-2.113-.979c-.4-.078-.774-.727-.968-1.816a2.112,2.112,0,0,1,2.752.137C430.2,368.738,429.516,369.39,429.038,369.3Zm13.928,23.5a.947.947,0,0,1-.946.939h0l-15.206-.486,9.287-14.686a.971.971,0,0,0,.286-.411l.035-.1.463-.732a4.672,4.672,0,0,0,.552-3.033l-2.106-10.2,6.912,7.269a3.726,3.726,0,0,1,.861,2.179Z" transform="translate(-398.8 -349.35)" fill="#fff"/>
        </g>
        <path id="Path_38660-6" data-name="Path 38660" d="M443.014,370.628l-8.155-8.576-.053.05a1.867,1.867,0,0,0-1.318-.878,11.863,11.863,0,0,0-.206-3.505c-.377-1.549-1.076-1.994-1.6-2.095a1.736,1.736,0,0,0-1.435.443,5.287,5.287,0,0,0-1.175,1.436,15.519,15.519,0,0,0-1.714,4.841q-.023.12-.045.24l-6.059,1.48a4.671,4.671,0,0,0-2.5,1.8L408.46,382.144a1.937,1.937,0,0,0,.6,2.669l14.859,9.4a1.924,1.924,0,0,0,1.03.3,1.945,1.945,0,0,0,.9-.219l16.142.516h.028a2.013,2.013,0,0,0,2.01-2l.138-19.26a4.757,4.757,0,0,0-1.155-2.92ZM429.86,357.971c.583-.979,1.217-1.535,1.652-1.45.355.069.685.6.884,1.415a11.141,11.141,0,0,1,.172,3.368l-4.277,1.044A14.42,14.42,0,0,1,429.86,357.971Zm-4.909,35.623a1.014,1.014,0,0,1-.542-.157l-14.859-9.4a1.023,1.023,0,0,1-.318-1.41l10.294-16.279a3.816,3.816,0,0,1,1.948-1.4l5.691-1.39a14.812,14.812,0,0,0-.065,3.585,3.05,3.05,0,0,0-.288.385,3.013,3.013,0,1,0,1.141-1.058,15.007,15.007,0,0,1,.166-3.145l4.853-1.185a1,1,0,0,1,.236-.029.955.955,0,0,1,.907.645l-.027.026.051.053c0,.017.008.033.012.05l2.392,11.59a3.815,3.815,0,0,1-.43,2.361L425.818,393.12A1.02,1.02,0,0,1,424.95,393.595Zm6.2-23.318a2.111,2.111,0,0,1-3.782-1.81,4.036,4.036,0,0,0,.329.781,1.736,1.736,0,0,0,1.166.946,1.4,1.4,0,0,0,.268.026c.752,0,1.526-.6,2.237-1.734A2.108,2.108,0,0,1,431.151,370.277Zm-2.113-.979c-.4-.078-.774-.727-.968-1.816a2.112,2.112,0,0,1,2.752.137C430.2,368.738,429.516,369.39,429.038,369.3Zm13.928,23.5a.947.947,0,0,1-.946.939h0l-15.206-.486,9.287-14.686a.971.971,0,0,0,.286-.411l.035-.1.463-.732a4.672,4.672,0,0,0,.552-3.033l-2.106-10.2,6.912,7.269a3.726,3.726,0,0,1,.861,2.179Z" transform="translate(-408.161 -355.6)" fill="none" stroke="#ff0068" stroke-width="0.5"/>
      </g>
    </g>
  </g>
</svg>
