<svg xmlns="http://www.w3.org/2000/svg" xmlns:xlink="http://www.w3.org/1999/xlink" width="41" height="41" viewBox="0 0 41 41">
  <defs>
    <filter id="Ellipse_3532" x="0" y="0" width="41" height="41" filterUnits="userSpaceOnUse">
      <feOffset dy="3" input="SourceAlpha"/>
      <feGaussianBlur stdDeviation="3" result="blur"/>
      <feFlood flood-opacity="0.161"/>
      <feComposite operator="in" in2="blur"/>
      <feComposite in="SourceGraphic"/>
    </filter>
    <filter id="Ellipse_3532-2" x="0" y="0" width="41" height="41" filterUnits="userSpaceOnUse">
      <feOffset dy="3" input="SourceAlpha"/>
      <feGaussianBlur stdDeviation="3" result="blur-2"/>
      <feFlood flood-opacity="0.161" result="color"/>
      <feComposite operator="out" in="SourceGraphic" in2="blur-2"/>
      <feComposite operator="in" in="color"/>
      <feComposite operator="in" in2="SourceGraphic"/>
    </filter>
  </defs>
  <g id="Group_24467" data-name="Group 24467" transform="translate(16068.391 -1166)">
    <g data-type="innerShadowGroup">
      <g transform="matrix(1, 0, 0, 1, -16068.39, 1166)" filter="url(#Ellipse_3532)">
        <circle id="Ellipse_3532-3" data-name="Ellipse 3532" cx="11.5" cy="11.5" r="11.5" transform="translate(9 6)" fill="#fff"/>
      </g>
      <g transform="matrix(1, 0, 0, 1, -16068.39, 1166)" filter="url(#Ellipse_3532-2)">
        <circle id="Ellipse_3532-4" data-name="Ellipse 3532" cx="11.5" cy="11.5" r="11.5" transform="translate(9 6)" fill="#fff"/>
      </g>
    </g>
    <path id="Icon_ionic-ios-close" data-name="Icon ionic-ios-close" d="M16.8,15.746l3.185-3.185a.746.746,0,0,0-1.055-1.055l-3.185,3.185L12.56,11.506A.746.746,0,1,0,11.5,12.561l3.185,3.185L11.5,18.931a.746.746,0,0,0,1.055,1.055L15.745,16.8l3.185,3.185a.746.746,0,1,0,1.055-1.055Z" transform="translate(-16063.427 1167.4)" fill="#ff0068"/>
  </g>
</svg>
