<svg xmlns="http://www.w3.org/2000/svg" width="76.188" height="55.32" viewBox="0 0 76.188 55.32">
  <g id="Group_24794" data-name="Group 24794" transform="translate(8687.5 -23286)">
    <rect id="Rectangle_17700" data-name="Rectangle 17700" width="75.188" height="14.117" transform="translate(-8687 23326.703)" fill="none" stroke="#510f30" stroke-width="1"/>
    <rect id="Rectangle_17701" data-name="Rectangle 17701" width="75.188" height="14.117" transform="translate(-8687 23286.5)" fill="none" stroke="#510f30" stroke-width="1"/>
    <rect id="Rectangle_17702" data-name="Rectangle 17702" width="75.188" height="23.784" transform="translate(-8687 23301.844)" fill="none" stroke="#510f30" stroke-width="1"/>
    <path id="Path_38646" data-name="Path 38646" d="M56.167,4.588H49.875l.46.767h6.291l2.148,1.381s.46.46.153.767L56.474,9.345H44.5l-.921-1.228v3.376H28.7v-6.6H39.595V8.271H33.3V9.5h7.672V5.048h4.143L47.574,7.5h7.058V6.276H47.574L44.2,2.9H55.093Z" transform="translate(-8672.429 23286.822)" fill="#510f30"/>
    <rect id="Rectangle_17703" data-name="Rectangle 17703" width="1.534" height="1.381" transform="translate(-8626.85 23297.088)" fill="#510f30"/>
    <rect id="Rectangle_17704" data-name="Rectangle 17704" width="1.534" height="1.381" transform="translate(-8623.167 23297.088)" fill="#510f30"/>
    <rect id="Rectangle_17705" data-name="Rectangle 17705" width="2.148" height="1.995" transform="translate(-8677.947 23290.49)" fill="#510f30"/>
    <rect id="Rectangle_17706" data-name="Rectangle 17706" width="2.148" height="1.995" transform="translate(-8675.185 23290.49)" fill="#510f30"/>
    <rect id="Rectangle_17707" data-name="Rectangle 17707" width="2.148" height="1.995" transform="translate(-8657.539 23290.49)" fill="#510f30"/>
    <rect id="Rectangle_17708" data-name="Rectangle 17708" width="5.524" height="1.995" transform="translate(-8652.782 23293.713)" fill="#510f30"/>
    <path id="Path_38647" data-name="Path 38647" d="M28.353,6.122h3.836v4.45H3.648L1.5,7.81,5.183,2.9H8.1L5.95,7.81H24.824V6.276h2.609V7.81h.921Z" transform="translate(-8686.966 23286.822)" fill="#510f30"/>
    <path id="Path_38648" data-name="Path 38648" d="M14.233,37.286H11.777V33.143a4.319,4.319,0,0,0-.153-1.688,2.118,2.118,0,0,0-.46-.614,1.15,1.15,0,0,0-.767-.153,2.218,2.218,0,0,0-1.074.307,1.02,1.02,0,0,0-.614.767A4.407,4.407,0,0,0,8.4,33.6v3.683H6.1V29.153H8.248v1.228A3.779,3.779,0,0,1,11.164,29a4.48,4.48,0,0,1,1.381.307,2.359,2.359,0,0,1,.921.614l.46.921a3.406,3.406,0,0,1,.153,1.381v5.064Z" transform="translate(-8684.507 23300.771)" fill="#510f30"/>
    <path id="Path_38649" data-name="Path 38649" d="M27.831,34.677l2.3.307a4.189,4.189,0,0,1-1.381,1.841,4.183,4.183,0,0,1-2.455.614,3.883,3.883,0,0,1-3.376-1.381A4.284,4.284,0,0,1,22,33.3a4.4,4.4,0,0,1,1.228-3.222A3.82,3.82,0,0,1,26.143,29a4.034,4.034,0,0,1,3.069,1.228,5.042,5.042,0,0,1,1.074,3.683H24.455a1.97,1.97,0,0,0,.614,1.534,1.876,1.876,0,0,0,1.381.46,2.181,2.181,0,0,0,.921-.307A2.5,2.5,0,0,0,27.831,34.677Zm.153-2.148a1.876,1.876,0,0,0-.46-1.381,1.867,1.867,0,0,0-2.455,0,1.876,1.876,0,0,0-.46,1.381Z" transform="translate(-8676.01 23300.771)" fill="#510f30"/>
    <path id="Path_38650" data-name="Path 38650" d="M45.564,30.009V31.7H44.029v4.45c0,.153.153.153.153.307.153,0,.307.153.46.153a2.7,2.7,0,0,0,.921-.153l.153,1.688a7.7,7.7,0,0,1-1.841.307,2.275,2.275,0,0,1-1.074-.153,3.354,3.354,0,0,1-.767-.46,1.172,1.172,0,0,1-.307-.767c0-.307-.153-.767-.153-1.534V32H40.5V30.315h1.074V28.628l2.3-1.228v2.915h1.688Z" transform="translate(-8666.122 23299.916)" fill="#510f30"/>
    <rect id="Rectangle_17709" data-name="Rectangle 17709" width="17.8" height="19.027" transform="translate(-8676.873 23303.686)" fill="#510f30"/>
    <path id="Path_38651" data-name="Path 38651" d="M18.3,20.386,31.5,12.1H54.973L42.084,20.386,56.048,30.667H30.883L18.607,21.153Z" transform="translate(-8677.987 23291.738)" fill="#510f30"/>
  </g>
</svg>
