<svg xmlns="http://www.w3.org/2000/svg" width="73.093" height="56.676" viewBox="0 0 73.093 56.676">
  <path id="_9a605ff90c78f8dd2231d4a60fbd5fcf" data-name="9a605ff90c78f8dd2231d4a60fbd5fcf" d="M31.7,86.4H22.422a1.071,1.071,0,0,0,0,2.141H31.7a1.071,1.071,0,0,0,0-2.141Zm-1.428,7.423H7.925a1.071,1.071,0,0,0,0,2.141H30.276a1.071,1.071,0,1,0,0-2.141ZM17.25,86.4H7.97a1.071,1.071,0,0,0,0,2.141H17.25a1.071,1.071,0,0,0,0-2.141Zm-7.9-6.852h7.138a2.5,2.5,0,0,0,2.5-2.5V72.627a2.5,2.5,0,0,0-2.5-2.5H9.351a2.5,2.5,0,0,0-2.5,2.5v4.426a2.5,2.5,0,0,0,2.5,2.5Zm-.357-6.924a.357.357,0,0,1,.357-.357h7.138a.357.357,0,0,1,.357.357v4.426a.357.357,0,0,1-.357.357H9.351a.357.357,0,0,1-.357-.357ZM20.2,98.11H7.973a1.071,1.071,0,0,0,0,2.141H20.2a1.071,1.071,0,0,0,0-2.141ZM46.151,86.4H36.872a1.071,1.071,0,0,0,0,2.141h9.279a1.071,1.071,0,1,0,0-2.141ZM59.174,70.129H43.327a2.5,2.5,0,0,0-2.5,2.5V74.34a2.5,2.5,0,0,0,2.5,2.5H59.174a2.5,2.5,0,0,0,2.5-2.5V72.627A2.5,2.5,0,0,0,59.174,70.129Zm.357,4.211a.357.357,0,0,1-.357.357H43.327a.357.357,0,0,1-.357-.357V72.627a.357.357,0,0,1,.357-.357H59.174a.357.357,0,0,1,.357.357ZM67.739,50H9.922a5.359,5.359,0,0,0-5.353,5.353v8.41A5.361,5.361,0,0,0,0,69.058v32.264a5.359,5.359,0,0,0,5.353,5.353H63.171a5.359,5.359,0,0,0,5.353-5.353v-8.41a5.361,5.361,0,0,0,4.568-5.295V55.353A5.359,5.359,0,0,0,67.739,50Zm-1.356,51.322a3.215,3.215,0,0,1-3.212,3.212H5.353a3.215,3.215,0,0,1-3.212-3.212V69.058a3.215,3.215,0,0,1,3.212-3.212H63.171a3.215,3.215,0,0,1,3.212,3.212Zm4.568-13.7a3.218,3.218,0,0,1-2.427,3.115V69.058a3.3,3.3,0,0,0-.013-.357h2.44Zm0-21.057H67.9A5.358,5.358,0,0,0,63.171,63.7H6.71v-4.14H70.951Zm0-9.137H6.71v-2.07a3.215,3.215,0,0,1,3.212-3.212H67.739a3.215,3.215,0,0,1,3.212,3.212ZM60.6,86.4H51.322a1.071,1.071,0,0,0,0,2.141H60.6a1.071,1.071,0,1,0,0-2.141ZM57.389,92.97a4.274,4.274,0,0,0-2.141.571,4.283,4.283,0,1,0,0,7.423,4.283,4.283,0,1,0,2.141-7.994Zm-4.283,6.424a2.141,2.141,0,1,1,2.141-2.141,2.141,2.141,0,0,1-2.141,2.141Zm4.283,0a2.1,2.1,0,0,1-.535-.07,4.276,4.276,0,0,0,0-4.14,2.094,2.094,0,0,1,.535-.073,2.141,2.141,0,0,1,0,4.283Z" transform="translate(0 -50)" fill="#510f30"/>
</svg>
