<svg id="SVGRepo_iconCarrier" xmlns="http://www.w3.org/2000/svg" width="19.112" height="19" viewBox="0 0 19.112 19">
  <g id="Group_28298" data-name="Group 28298">
    <g id="Group_28297" data-name="Group 28297">
      <g id="Group_28289" data-name="Group 28289">
        <path id="Path_45143" data-name="Path 45143" d="M20.559,30.494h0c-.112,0-.335-.112-.447-.112a2.293,2.293,0,0,0-3.241,0,.54.54,0,0,1-.782,0l-4.471-4.471a.54.54,0,0,1,0-.782,2.293,2.293,0,0,0,0-3.241.54.54,0,0,1,0-.782l9.388-9.388c.112-.112.224-.112.447-.112h0c.112,0,.335.112.447.112a2.294,2.294,0,0,0,3.241,0,.54.54,0,0,1,.782,0l4.471,4.471a.54.54,0,0,1,0,.782,2.294,2.294,0,0,0,0,3.241.54.54,0,0,1,0,.782l-9.388,9.388C20.894,30.382,20.671,30.494,20.559,30.494Zm-7.712-5.029,3.688,3.688a3.741,3.741,0,0,1,4.024,0l8.606-8.606a3.353,3.353,0,0,1,0-4.024l-3.688-3.688a3.741,3.741,0,0,1-4.024,0l-8.606,8.606A3.742,3.742,0,0,1,12.847,25.465Z" transform="translate(-11.45 -11.55)" fill="#510f30"/>
      </g>
      <g id="Group_28296" data-name="Group 28296" transform="translate(5.532 5.391)">
        <g id="Group_28290" data-name="Group 28290" transform="translate(2.653)">
          <path id="Path_45144" data-name="Path 45144" d="M21.262,24.115a.57.57,0,0,1-.559-.447l-1.9-6.594a.53.53,0,0,1,1.006-.335l1.9,6.594a.543.543,0,0,1-.335.671C21.374,24.115,21.374,24.115,21.262,24.115Z" transform="translate(-18.773 -16.373)" fill="#510f30"/>
        </g>
        <g id="Group_28295" data-name="Group 28295" transform="translate(0 2.712)">
          <g id="Group_28292" data-name="Group 28292" transform="translate(6.259 0.112)">
            <g id="Group_28291" data-name="Group 28291">
              <path id="Path_45145" data-name="Path 45145" d="M23.118,21.135a1.118,1.118,0,1,1,1.118-1.118A1.056,1.056,0,0,1,23.118,21.135Z" transform="translate(-22 -18.9)" fill="#510f30"/>
            </g>
          </g>
          <g id="Group_28294" data-name="Group 28294">
            <g id="Group_28293" data-name="Group 28293">
              <path id="Path_45146" data-name="Path 45146" d="M17.518,21.035a1.118,1.118,0,1,1,1.118-1.118A1.12,1.12,0,0,1,17.518,21.035Z" transform="translate(-16.4 -18.8)" fill="#510f30"/>
            </g>
          </g>
        </g>
      </g>
    </g>
  </g>
</svg>
