<svg xmlns="http://www.w3.org/2000/svg" width="20" height="20" viewBox="0 0 20 20">
  <path id="Icon_ionic-ios-star" data-name="Icon ionic-ios-star" d="M3.009,10.3H9.576l2-6.413a.707.707,0,0,1,1.357,0l2,6.413h6.612a.745.745,0,0,1,.714.769.607.607,0,0,1-.013.13.754.754,0,0,1-.3.543l-5.4,4.1,2.071,6.486a.807.807,0,0,1-.246.865.667.667,0,0,1-.4.188.837.837,0,0,1-.446-.173L12.25,19.159,6.982,23.2a.8.8,0,0,1-.446.173.62.62,0,0,1-.4-.188.8.8,0,0,1-.246-.865l2.071-6.486L2.612,11.7l-.129-.12a.832.832,0,0,1-.232-.514A.783.783,0,0,1,3.009,10.3Z" transform="translate(-2.25 -3.375)" fill="#ff0068"/>
</svg>
